Coordinates
version=1
nRows=16
nColumns=36
inDegrees=yes

Units are S.I. units (second, meters, Newtons, ...)
If the header above contains a line with 'inDegrees', this indicates whether rotational values are in degrees (yes) or radians (no).

endheader
time	pelvis_tilt	pelvis_list	pelvis_rotation	pelvis_tx	pelvis_ty	pelvis_tz	hip_flexion_r	hip_adduction_r	hip_rotation_r	knee_angle_r	knee_angle_r_beta	ankle_angle_r	subtalar_angle_r	mtp_angle_r	hip_flexion_l	hip_adduction_l	hip_rotation_l	knee_angle_l	knee_angle_l_beta	ankle_angle_l	subtalar_angle_l	mtp_angle_l	lumbar_extension	lumbar_bending	lumbar_rotation	arm_flex_r	arm_add_r	arm_rot_r	elbow_flex_r	pro_sup_r	arm_flex_l	arm_add_l	arm_rot_l	elbow_flex_l	pro_sup_l
      0.00000000	      9.76940234	     -0.01653993	      0.08117790	     -0.86720405	      1.28627997	     -0.10144825	    -16.25396455	     -0.90279195	     -2.70168758	      1.53473033	      0.02678610	     -3.86568028	    -10.95059231	     -6.39560556	    -16.57409282	      0.52965805	      1.71109246	      1.79062908	      0.03125237	      1.23833079	     -5.37403065	     -6.39560556	    -20.39723461	      0.49847527	      0.65589681	     16.59333806	     -2.98464946	     22.48570245	     22.20731107	     78.21828766	     15.63662319	     -2.12590932	     27.98828785	     16.46757316	     67.14907760
      0.00416670	     11.07133827	      1.15470683	      0.51268789	     -0.86871410	      1.28686151	     -0.10296833	    -17.78647413	     -1.69087132	     -3.67412028	      0.94295009	      0.01645758	     -0.63437265	     -6.93672306	     -6.72169509	    -18.49967977	      1.74292537	      2.70286957	      0.96018071	      0.01675831	      0.13779587	     -4.63399639	     -6.72169509	    -22.27353911	     -0.28335755	      0.37038349	     17.35570164	     -3.44428850	     25.54025295	     22.41122986	     77.69652028	     17.23658590	     -2.18746886	     29.25841492	     16.45359327	     67.42845886
      0.00833330	     10.43522344	      1.77733543	      0.08714476	     -0.86724229	      1.28689177	     -0.10212968	    -17.12248960	     -2.29476404	     -4.67380231	      0.74237186	      0.01295683	     -0.37374328	     -6.80854204	     -7.22566399	    -17.95010645	      2.53256650	      2.37478669	      0.95427286	      0.01665520	     -0.14467233	     -4.24147364	     -7.22566399	    -21.93744942	     -1.21536576	      0.56551451	     17.96112943	     -4.07458898	     32.69045171	     22.43022623	     76.62542325	     18.04199741	     -2.86189652	     34.89951815	     15.74466836	     67.87750330
      0.01250000	     10.50788019	      2.06544663	      0.20449201	     -0.86866664	      1.28684763	     -0.10222349	    -17.16807341	     -2.64035317	     -4.85361986	      0.64174274	      0.01120052	      0.82443623	     -5.05314817	     -7.43809009	    -18.07085555	      2.90292268	      2.80117206	      0.63510262	      0.01108463	     -0.23123802	     -4.07184991	     -7.43809009	    -22.28766623	     -1.52110054	      0.90864278	     18.52628038	     -4.31653706	     34.65289799	     22.05708900	     81.84038007	     19.53361143	     -3.39378884	     43.61907883	     14.69571243	     68.52024868
      0.01666670	     10.21166689	      2.10041512	      0.26389152	     -0.87055200	      1.29043704	     -0.10078823	    -16.85781736	     -2.69019333	     -5.00186467	      0.60269639	      0.01051904	      0.72292544	     -5.07273289	     -7.43832816	    -17.68229581	      2.93978491	      3.04253047	      0.50697822	      0.00884844	     -0.39018610	     -3.78880215	     -7.43832816	    -22.67317493	     -1.59305589	      1.01862980	     19.12803228	     -4.22563755	     34.81278075	     22.09032408	     81.90294143	     20.18478101	     -3.46019897	     43.83050134	     14.77397049	     68.59666364
      0.02083330	     10.04477815	      2.18780029	      0.34957877	     -0.87301606	      1.29140899	     -0.10158961	    -16.62170874	     -2.75150146	     -5.14975932	      0.57388709	      0.01001622	      0.17030267	     -5.15539080	     -7.48224919	    -17.31682914	      2.97375433	      3.18897450	      0.48235755	      0.00841873	     -0.56185220	     -2.95991395	     -7.48224919	    -22.93858755	     -1.65376078	      1.21900168	     20.83192812	     -4.35742095	     41.90394963	     20.29717015	     79.04063338	     22.43490327	     -3.59188028	     59.00405765	     12.68941743	     62.77330892
      0.02500000	      9.87341741	      2.23411023	      0.44234921	     -0.87340771	      1.29366130	     -0.10123486	    -16.39113756	     -2.80642304	     -5.21514296	      0.54147518	      0.00945052	     -0.39503654	     -5.08829049	     -7.48932456	    -16.98583553	      2.97485419	      3.40656239	      0.48808824	      0.00851875	     -1.10625066	     -2.57689525	     -7.48932456	    -23.46362066	     -1.66934437	      1.14553807	     22.04387484	     -4.16012877	     44.06811094	     19.49846725	     78.27162534	     23.78720573	     -3.53515707	     63.00920740	     11.93446156	     63.27775004
      0.02916670	      9.59188478	      2.27093317	      0.44777145	     -0.87519220	      1.29394240	     -0.09925900	    -15.98463318	     -2.80331414	     -4.86607720	      0.52280987	      0.00912475	     -0.86212937	     -5.17117896	     -7.49488823	    -16.49754580	      2.94074030	      3.33959981	      0.50909682	      0.00888542	     -1.35637042	     -2.14674186	     -7.49488823	    -23.81494711	     -1.86153632	      1.37296375	     22.96718619	     -4.02297578	     44.80736361	     19.19592489	     77.01634121	     25.42066780	     -3.41966324	     70.01768369	     10.76230601	     58.61601514
      0.03333330	      9.66065682	      2.19369307	      0.47396108	     -0.87529683	      1.29542686	     -0.09978799	    -16.05517683	     -2.72480685	     -5.12967331	      0.52225259	      0.00911503	     -1.86580920	     -5.75317365	     -7.49622770	    -16.44239556	      2.81746667	      3.36640251	      0.51624706	      0.00901021	     -1.65364970	     -1.98515730	     -7.49622770	    -24.47928867	     -1.78705227	      1.14397640	     24.01860110	     -3.76669740	     45.78615974	     18.80980000	     76.91253237	     26.48232975	     -3.37830156	     72.04368719	     10.12759249	     58.39316443
      0.03750000	      9.10834820	      2.22221795	      0.61574126	     -0.87475862	      1.29291876	     -0.10025105	    -15.36802376	     -2.65498484	     -4.98579561	      0.49562697	      0.00865032	     -1.52326534	     -5.04046783	     -7.49685958	    -15.75360685	      2.75713376	      3.17764138	      0.53440101	      0.00932706	     -1.49823657	     -1.51301187	     -7.49685958	    -24.14754348	     -1.79519989	      1.01189108	     24.43543549	     -3.57317379	     44.90157889	     18.89265884	     75.79842448	     27.05070475	     -3.32874436	     71.30429198	      9.87307045	     58.24481577
      0.04166670	      9.05125880	      2.29232597	      0.67714268	     -0.87372235	      1.29579074	     -0.10113432	    -15.35934877	     -2.71545325	     -4.88581542	      0.46884368	      0.00818287	     -1.95402831	     -5.21355908	     -7.49883930	    -15.66515492	      2.79362082	      3.11264951	      0.53448007	      0.00932844	     -1.96244828	     -1.45582424	     -7.49883930	    -24.21850381	     -1.91894611	      0.99041649	     24.60954384	     -3.68721947	     43.53353176	     19.55787891	     78.16158993	     28.16572514	     -2.93708977	     80.93403868	      8.23978671	     50.67460833
      0.04583330	      8.84395461	      2.32569191	      0.70043307	     -0.87387429	      1.29554747	     -0.09964253	    -15.12027683	     -2.69309626	     -4.79107866	      0.45543510	      0.00794884	     -2.07088971	     -4.96848572	     -7.49884793	    -15.44542555	      2.79575644	      2.86330718	      0.52632028	      0.00918602	     -2.24197945	     -1.41049464	     -7.49884793	    -24.12341803	     -1.96594509	      0.90356390	     25.02283297	     -3.58777672	     43.42071109	     19.68983102	     78.15264770	     28.67569392	     -2.94258330	     80.96619800	      8.10723360	     50.68131625
      0.05000000	      8.67720922	      2.35634730	      0.73593780	     -0.87316454	      1.29501992	     -0.10170470	    -14.97528362	     -2.73826410	     -4.93801660	      0.46314245	      0.00808336	     -1.98464439	     -4.39261900	     -7.49908996	    -15.30928410	      2.84722423	      2.56927665	      0.51651777	      0.00901494	     -2.42714954	     -1.22063838	     -7.49908996	    -23.90344559	     -2.00771174	      0.98773787	     24.81028025	     -3.66879785	     40.55416448	     20.62793464	     78.91318616	     29.28522792	     -2.59075445	     83.27590321	      7.31284175	     50.65530310
      0.05416670	      8.51258716	      2.48948764	      0.86929987	     -0.87304621	      1.29080595	     -0.10238246	    -14.87006341	     -2.87157808	     -5.01749234	      0.46459745	      0.00810876	     -1.49718920	     -3.54164421	     -7.49923962	    -15.10833892	      2.96945430	      2.20767794	      0.50605134	      0.00883226	     -2.41998505	     -1.28667769	     -7.49923962	    -23.63341543	     -2.06175545	      0.87847087	     24.97046749	     -3.72823160	     39.67896014	     21.28618507	     77.26997627	     29.68557935	     -2.45339571	     82.39230664	      7.22461083	     51.40198665
      0.05833330	      7.91620946	      2.59618786	      0.87360105	     -0.86826768	      1.28970118	     -0.10528859	    -14.38478217	     -3.10642775	     -4.63469498	      0.44996953	      0.00785345	     -0.79721519	     -2.58582505	     -7.49926166	    -14.53539990	      3.16951500	      1.96846692	      0.46659541	      0.00814363	     -2.25772318	     -1.31161415	     -7.49926166	    -22.48416327	     -1.99187153	      0.69111737	     24.88365022	     -3.80910668	     39.34434507	     21.69438796	     77.81554478	     29.62812400	     -2.28731259	     82.70236543	      7.11233070	     51.31669073
      0.06250000	      7.31936502	      2.68639590	      1.02304823	     -0.86713384	      1.29674369	     -0.10600358	    -13.85995521	     -3.29241689	     -4.36691434	      0.40461227	      0.00706182	      0.27070020	     -0.99981792	     -7.49964829	    -13.97141951	      3.33516180	      1.52787465	      0.43141898	      0.00752968	     -1.96935439	     -1.26003399	     -7.49964829	    -21.60903985	     -1.98195224	      0.77802476	     23.95495603	     -3.82194412	     32.90234823	     23.39594370	     86.93798667	     29.87716408	     -1.77582429	     85.93660060	      6.44281084	     48.96966516
